<?xml version="1.0" encoding="UTF-8" standalone="no"?>
<svg width="1200" height="630" viewBox="0 0 1200 630" xmlns="http://www.w3.org/2000/svg">
  <!-- Background -->
  <rect width="1200" height="630" fill="#0f172a" />
  
  <!-- Stars -->
  <g fill="#ffffff">
    <circle cx="100" cy="100" r="2" />
    <circle cx="200" cy="150" r="1.5" />
    <circle cx="300" cy="200" r="2" />
    <circle cx="400" cy="100" r="1" />
    <circle cx="500" cy="150" r="2" />
    <circle cx="600" cy="200" r="1.5" />
    <circle cx="700" cy="100" r="1" />
    <circle cx="800" cy="150" r="2" />
    <circle cx="900" cy="200" r="1" />
    <circle cx="1000" cy="100" r="1.5" />
    <circle cx="1100" cy="150" r="2" />
    <circle cx="150" cy="250" r="1" />
    <circle cx="250" cy="300" r="1.5" />
    <circle cx="350" cy="350" r="2" />
    <circle cx="450" cy="250" r="1" />
    <circle cx="550" cy="300" r="1.5" />
    <circle cx="650" cy="350" r="2" />
    <circle cx="750" cy="250" r="1" />
    <circle cx="850" cy="300" r="1.5" />
    <circle cx="950" cy="350" r="2" />
    <circle cx="1050" cy="250" r="1" />
    <circle cx="1150" cy="300" r="1.5" />
    <circle cx="125" cy="400" r="2" />
    <circle cx="225" cy="450" r="1" />
    <circle cx="325" cy="500" r="1.5" />
    <circle cx="425" cy="400" r="2" />
    <circle cx="525" cy="450" r="1" />
    <circle cx="625" cy="500" r="1.5" />
    <circle cx="725" cy="400" r="2" />
    <circle cx="825" cy="450" r="1" />
    <circle cx="925" cy="500" r="1.5" />
    <circle cx="1025" cy="400" r="2" />
    <circle cx="1125" cy="450" r="1" />
    <circle cx="175" cy="550" r="1.5" />
  </g>
  
  <!-- Sun -->
  <circle cx="600" cy="315" r="80" fill="url(#sun-gradient)" />
  
  <!-- Planet Orbits -->
  <circle cx="600" cy="315" r="120" fill="none" stroke="#ffffff" stroke-width="1" stroke-opacity="0.2" />
  <circle cx="600" cy="315" r="160" fill="none" stroke="#ffffff" stroke-width="1" stroke-opacity="0.2" />
  <circle cx="600" cy="315" r="200" fill="none" stroke="#ffffff" stroke-width="1" stroke-opacity="0.2" />
  <circle cx="600" cy="315" r="240" fill="none" stroke="#ffffff" stroke-width="1" stroke-opacity="0.2" />
  <circle cx="600" cy="315" r="280" fill="none" stroke="#ffffff" stroke-width="1" stroke-opacity="0.2" />
  <circle cx="600" cy="315" r="320" fill="none" stroke="#ffffff" stroke-width="1" stroke-opacity="0.2" />
  <circle cx="600" cy="315" r="360" fill="none" stroke="#ffffff" stroke-width="1" stroke-opacity="0.2" />
  <circle cx="600" cy="315" r="400" fill="none" stroke="#ffffff" stroke-width="1" stroke-opacity="0.2" />
  
  <!-- Planets -->
  <circle cx="720" cy="315" r="8" fill="#a9a9a9" /> <!-- Mercury -->
  <circle cx="760" cy="315" r="15" fill="#e39e54" /> <!-- Venus -->
  <circle cx="800" cy="315" r="16" fill="#4287f5" /> <!-- Earth -->
  <circle cx="840" cy="315" r="12" fill="#d63031" /> <!-- Mars -->
  <circle cx="880" cy="315" r="35" fill="#f39c12" /> <!-- Jupiter -->
  <circle cx="920" cy="315" r="30" fill="#f1c40f" /> <!-- Saturn -->
  <circle cx="960" cy="315" r="20" fill="#3498db" /> <!-- Uranus -->
  <circle cx="1000" cy="315" r="20" fill="#2980b9" /> <!-- Neptune -->
  
  <!-- Saturn's Rings -->
  <ellipse cx="920" cy="315" rx="45" ry="10" fill="none" stroke="#f1c40f" stroke-width="2" />
  
  <!-- Title -->
  <text x="600" y="550" font-family="Arial, sans-serif" font-size="48" font-weight="bold" fill="#ffffff" text-anchor="middle">Solar System Explorer</text>
  <text x="600" y="590" font-family="Arial, sans-serif" font-size="24" fill="#a0aec0" text-anchor="middle">An interactive space adventure for kids!</text>
  
  <!-- Gradients -->
  <defs>
    <radialGradient id="sun-gradient" cx="50%" cy="50%" r="50%" fx="50%" fy="50%">
      <stop offset="0%" stop-color="#ffff00" />
      <stop offset="100%" stop-color="#ff8c00" />
    </radialGradient>
  </defs>
</svg>