<?xml version="1.0" encoding="UTF-8"?>
<svg width="200" height="200" viewBox="0 0 200 200" xmlns="http://www.w3.org/2000/svg">
  <defs>
    <radialGradient id="sunGradient" cx="50%" cy="50%" r="50%" fx="50%" fy="50%">
      <stop offset="0%" stop-color="#fff176" />
      <stop offset="50%" stop-color="#ffd600" />
      <stop offset="100%" stop-color="#ff9800" />
    </radialGradient>
    <filter id="sunGlow" x="-50%" y="-50%" width="200%" height="200%">
      <feGaussianBlur stdDeviation="10" result="blur" />
      <feComposite in="SourceGraphic" in2="blur" operator="over" />
    </filter>
  </defs>
  
  <!-- Sun glow -->
  <circle cx="100" cy="100" r="95" fill="#ff9800" filter="url(#sunGlow)" opacity="0.7" />
  
  <!-- Sun body -->
  <circle cx="100" cy="100" r="80" fill="url(#sunGradient)" />
  
  <!-- Solar flares -->
  <path d="M100 20 Q110 10 120 25 T140 30" stroke="#ff9800" stroke-width="3" fill="none" />
  <path d="M160 70 Q170 60 175 80 T180 100" stroke="#ff9800" stroke-width="3" fill="none" />
  <path d="M140 160 Q150 170 160 150 T170 130" stroke="#ff9800" stroke-width="3" fill="none" />
  <path d="M60 170 Q50 180 40 160 T30 140" stroke="#ff9800" stroke-width="3" fill="none" />
  <path d="M20 90 Q10 80 15 70 T25 50" stroke="#ff9800" stroke-width="3" fill="none" />
  
  <!-- Surface details -->
  <circle cx="70" cy="60" r="15" fill="#ffd600" opacity="0.7" />
  <circle cx="130" cy="80" r="20" fill="#ffd600" opacity="0.6" />
  <circle cx="90" cy="120" r="18" fill="#ffd600" opacity="0.8" />
  <circle cx="50" cy="100" r="12" fill="#ffd600" opacity="0.7" />
  <circle cx="150" cy="130" r="15" fill="#ffd600" opacity="0.6" />
  <circle cx="110" cy="40" r="10" fill="#ffd600" opacity="0.7" />
</svg>