<?xml version="1.0" encoding="UTF-8"?>
<svg width="200" height="200" viewBox="0 0 200 200" xmlns="http://www.w3.org/2000/svg">
  <defs>
    <radialGradient id="venusGradient" cx="50%" cy="50%" r="50%" fx="50%" fy="50%">
      <stop offset="0%" stop-color="#f9e8b0" />
      <stop offset="50%" stop-color="#e6c478" />
      <stop offset="100%" stop-color="#d4a76a" />
    </radialGradient>
  </defs>
  <circle cx="100" cy="100" r="90" fill="url(#venusGradient)" />
  
  <!-- Cloud patterns -->
  <path d="M30 70 Q60 40 100 60 T170 80" stroke="#f9e8d0" stroke-width="8" fill="none" opacity="0.6" />
  <path d="M40 100 Q70 120 120 100 T160 90" stroke="#f9e8d0" stroke-width="10" fill="none" opacity="0.5" />
  <path d="M50 130 Q80 150 120 130 T150 120" stroke="#f9e8d0" stroke-width="12" fill="none" opacity="0.4" />
  <path d="M60 50 Q90 30 130 50 T160 60" stroke="#f9e8d0" stroke-width="9" fill="none" opacity="0.5" />
  
  <!-- More cloud swirls -->
  <ellipse cx="70" cy="60" rx="25" ry="15" fill="#f9e8d0" opacity="0.3" transform="rotate(-15 70 60)" />
  <ellipse cx="130" cy="80" rx="30" ry="20" fill="#f9e8d0" opacity="0.2" transform="rotate(20 130 80)" />
  <ellipse cx="90" cy="120" rx="28" ry="18" fill="#f9e8d0" opacity="0.3" transform="rotate(10 90 120)" />
  <ellipse cx="50" cy="100" rx="22" ry="12" fill="#f9e8d0" opacity="0.25" transform="rotate(-10 50 100)" />
</svg>